<svg xmlns="http://www.w3.org/2000/svg" width="300.8" height="54.3" viewBox="0 0 300.8 54.3">
    <defs>
        <style>
            .cls-1{fill:#c9c9c7}.cls-2{fill:#21170d}.cls-3{fill:#df3527}
        </style>
    </defs>
    <g id="Layer_2" data-name="Layer 2">
        <g id="Layer_1-2" data-name="Layer 1">
            <path d="M279.7 14.6a4.7 4.7 0 0 1 9.4 0v39.7h11.6v-38c0-9.7-6.2-16.1-16.3-16.1s-16.3 6.4-16.3 16.1v38h11.6z" class="cls-1"/>
            <path d="M284.4.1C274.2.1 268 6.5 268 16.2v38.1h11.7V14.5a4.7 4.7 0 0 1 4.7-4.6 4.8 4.8 0 0 1 4.7 4.6v39.8h11.7V16.2c0-9.7-6.2-16.1-16.4-16.1M228.1 40.9c0 .2-.1.3-.1.4v.2a.4.4 0 0 1-.1.3.6.6 0 0 1-.1.4 3.6 3.6 0 0 1-3.3 2.3 3.5 3.5 0 0 1-3.3-2.4 2 2 0 0 1-.2-1.1V13.3a3.5 3.5 0 0 1 7-.4c0 .1.1.3.1.4v27.6zM243.3.1a15 15 0 0 0-9.4 3.1 15.2 15.2 0 0 0-9.4-3.1 14.8 14.8 0 0 0-15.2 15v24.2c0 8.6 6.5 15 15.2 15s15.2-6.4 15.2-15v-26a3.5 3.5 0 0 1 7 0h.1v41h11.7V15.1a14.8 14.8 0 0 0-15.2-15M32.8 27V16.1C32.8 6.4 26.6 0 16.4 0S0 6.4 0 16.1v15.4c0 15.3 13 22.7 28.6 22.7v-10c-9.4 0-16.9-3.6-16.9-12.7v-17a4.7 4.7 0 0 1 9.4 0V27zM142.1.1C131.9.1 126 6.6 126 16.3v5.1h11.8v-7.2a4.4 4.4 0 0 1 4.3-4.4 4.4 4.4 0 0 1 4.4 4.4V39.8a4.7 4.7 0 1 1-9.4 0v-8.4h-11.8v6.7c0 9.8 6.3 16.2 16.5 16.2s16.4-6.4 16.4-16.2V16.3c0-9.7-5.8-16.2-16.1-16.2M57.4 0C47.2 0 41 6.4 41 16.1v38.1h11.7V14.4a4.7 4.7 0 0 1 9.3 0v39.8h11.7V16.1C73.7 6.4 67.5 0 57.4 0" class="cls-2"/>
            <path d="M109.8 19.3a11.2 11.2 0 0 0 3.3-7.8c0-6.4-3.6-10.3-12.4-10.3h-3.6A1.9 1.9 0 0 1 95.4.1H84.8a14.8 14.8 0 0 0 3.1 5.5c2.1 2.4 4.7 4.7 10.6 4.8h.5c3 0 3.8 1.4 3.8 2.8a3 3 0 0 1-1.2 2.5h-.1a4.9 4.9 0 0 1-1.9.4h-.2c-11.1 0-16.8 8.3-16.8 16.5v3.9h11.2V31c0-5.1 4.7-5.3 5.6-5.3s5.5.2 5.5 5.3v8.4c0 5-4.6 5.3-5.5 5.3H99v9.6h.4c11 0 16.8-8.3 16.8-16.5v-5.2a16.8 16.8 0 0 0-6.4-13.3" class="cls-3"/>
            <path d="M200.5 35.8v-1.1c0-9.7-6.2-16.1-16.4-16.1a17.8 17.8 0 0 0-4.7.5c.2-6.7 5.7-9.6 11.4-8.8V.1c-13.4-.7-23.2 7.1-23.2 19.5v34.6h11.8V33a4.7 4.7 0 1 1 9.3 0v21.2h11.8z" class="cls-2"/>
        </g>
    </g>
</svg>
