<svg xmlns="http://www.w3.org/2000/svg" id="Layer_1" viewBox="0 0 603.8 117.1">
    <style>
        .st0{fill:#01a0e1}
    </style>
    <g id="Layer_x0020_1">
        <path d="M175.3 67c0-2.4-.2-4.3-.6-5.6-.4-1.4-1-2.3-2-2.9-.9-.6-2.2-.9-3.9-.9-1.5 0-2.8.3-3.6.9-.9.6-1.5 1.5-1.9 2.9-.4 1.3-.6 3.2-.6 5.6v12.2c0 2.5.2 4.3.6 5.7.4 1.3 1 2.3 1.9 2.8.9.6 2.1.9 3.6.9 1.7 0 3-.2 3.9-.9.9-.6 1.5-1.5 2-2.8.4-1.4.6-3.2.6-5.7V67zM202 53.9c2.3 2.8 3.6 7 3.6 12.5v11.1c0 6.9-1.2 13.1-3.4 18.4h-9.3c2-5.8 3.1-11.9 3.1-18.4V66.4c0-3.2-.4-5.5-1.3-6.8-.8-1.3-2.2-2-4.2-2s-3.5.7-4.4 2c-.8 1.3-1.2 3.6-1.2 6.7v12.9c0 5.8-1.4 10.1-4.1 13-2.7 2.9-6.7 4.4-12 4.4-5.2 0-9.1-1.5-11.8-4.4-2.6-2.9-4-7.3-4-13V67c0-5.7 1.3-10 3.9-12.9 2.6-3 6.3-4.4 11.3-4.4 3 0 5.5.6 7.5 1.7s3.4 2.8 4.2 5c1.2-2.3 2.6-4 4.6-5.1 1.9-1 4.2-1.6 7.1-1.6 4.6-.1 8 1.3 10.4 4.2zM242.1 54c2.7 3 4.1 7.3 4.1 13v10.5c0 6.9-1.1 13.1-3.4 18.4h-9.4c2-5.8 3.1-11.9 3.1-18.4V67c0-2.4-.2-4.3-.6-5.6-.4-1.4-1-2.3-1.8-2.9-.9-.6-2.1-.9-3.6-.9-1.6 0-2.8.3-3.7.9-.9.6-1.5 1.5-1.8 2.9-.4 1.3-.6 3.2-.6 5.6v10.4c0 6.5 1 12.6 3.1 18.5h-9.4c-2.2-5.5-3.4-11.6-3.4-18.4V67c0-5.7 1.4-10 4-13 2.7-2.9 6.6-4.4 11.9-4.4 4.9 0 8.9 1.5 11.5 4.4zM274.5 87.1c1-1.1 1.5-3 1.5-5.4 0-2.5-.6-4.4-1.5-5.5-1-1.2-2.6-1.7-4.8-1.7-2.1 0-3.6.6-4.6 1.7-1 1.1-1.5 3-1.5 5.5s.5 4.3 1.5 5.4c1 1.2 2.6 1.7 4.7 1.7s3.7-.6 4.7-1.7zm11.3-5.4c0 10-5.3 14.9-16 14.9-10.6 0-15.9-5-15.9-14.9 0-8.7 4-13.7 12.1-14.8v-2.5c0-1-.2-1.8-.8-2.5-.5-.7-1.4-1.5-2.8-2.6-.8-.7-1.4-1.3-1.8-1.8-.4-.5-.7-1.1-1-1.9-.2-.7-.4-1.8-.4-3.1v-2.2h9.8v1c0 .9.2 1.6.7 2.2.4.6 1.2 1.4 2.3 2.2 1.4 1 2.3 2 2.9 3.1.6 1 .9 2.4.9 4.1v4.4c6.6 1.6 10 6.4 10 14.4zM321.4 54c2.7 3 4 7.3 4 13v10.5c0 6.9-1.1 13.1-3.3 18.4h-9.4c2-5.8 3-11.9 3-18.4V67c0-2.4-.2-4.3-.6-5.6-.4-1.4-1-2.3-1.8-2.9-.9-.6-2.1-.9-3.7-.9-1.5 0-2.8.3-3.6.9-.9.6-1.5 1.5-1.9 2.9-.4 1.3-.6 3.2-.6 5.6v10.4c0 6.5 1 12.6 3.1 18.5h-9.4c-2.3-5.5-3.4-11.6-3.4-18.4V67c0-5.7 1.4-10 4-13 2.6-2.9 6.6-4.4 11.8-4.4 5.2 0 9.1 1.5 11.8 4.4zM334.4 50.3h9.7v31.3c0 2.5.6 4.4 1.6 5.5 1 1.2 2.8 1.7 5.2 1.7 2.3 0 4.1-.6 5.2-1.7 1-1.1 1.5-3 1.5-5.5 0-1.1-.1-2-.4-3-.4-.9-.8-2-1.5-3.3-.7-1.5-1.3-2.8-1.7-3.9s-.6-2.5-.6-3.9v-.9h9.7c.1 1.2.2 2.3.6 3.3.3.9.8 2.2 1.5 3.6.7 1.7 1.3 3.1 1.6 4.2.4 1.1.5 2.4.5 3.9 0 10-5.5 14.9-16.4 14.9-11 0-16.5-5-16.5-15V50.3zM402.6 54c2.7 3 4.1 7.3 4.1 13v10.5c0 6.9-1.1 13.1-3.4 18.4h-9.4C396 90.1 397 84 397 77.5V67c0-2.4-.2-4.3-.6-5.6-.4-1.4-1-2.3-1.9-2.9-.9-.6-2.1-.9-3.6-.9-1.6 0-2.8.3-3.7.9-.9.6-1.5 1.5-1.8 2.9-.4 1.3-.6 3.2-.6 5.6v10.4c0 6.5 1 12.6 3 18.5h-9.4c-2.2-5.5-3.3-11.6-3.3-18.4V67c0-5.7 1.3-10 4-13 2.6-2.9 6.6-4.4 11.8-4.4 5.1 0 9.1 1.5 11.7 4.4zM450.3 90.2c1.5-1.7 2.2-4.4 2.2-8.2 0-3.9-.7-6.8-2.2-8.4-1.5-1.6-3.9-2.5-7.1-2.5-3.2 0-5.5.9-7 2.5-1.5 1.7-2.2 4.5-2.2 8.4 0 3.9.8 6.6 2.3 8.2 1.5 1.7 3.8 2.5 7 2.5s5.5-.8 7-2.5zm4.4-18.1c1.9 2.6 2.9 5.9 2.9 10 0 4.7-1.2 8.4-3.8 11.1-2.5 2.6-6 3.9-10.6 3.9-2.6 0-5-.6-7.3-1.8-2.2-1.2-3.9-3-5.2-5.2-1.2-2.3-1.8-5-1.8-8s.6-5.5 1.7-7.7 2.6-3.9 4.6-5.2c2-1.3 4.2-2 6.6-2.2v-3.9c0-1.3-.3-2.3-.9-3.1-.6-.8-1.4-1.5-2.5-2.2-1.2-.7-2-1.5-2.6-2.5-.6-1-.9-2-.9-3.2V50h5v1.4c0 .9.2 1.6.6 2.2.4.6 1.2 1.2 2.2 1.8 1.3.8 2.3 1.7 3 2.8.7 1 1 2.5 1 4.2v4.8c3.5.6 6.1 2.3 8 4.9zM481.4 49.9v1.8c0 1.8.2 3.4.5 4.6.2 1.2.7 2.3 1.4 3.4.7 1 1.8 2.5 3.3 4.4 1.7 2.2 3 4 3.9 5.3.9 1.4 1.5 3.1 2.1 5.1s.9 4.6.9 7.6-.6 5.7-1.8 8c-1.2 2.2-2.9 3.9-5 5-2.2 1.2-4.6 1.8-7.4 1.8-4.2 0-7.7-1.3-10.3-3.9-2.5-2.6-3.8-6.1-3.8-10.7 0-4.2 1-7.9 3.1-10.9l4.1 1.5c-.7 1.3-1.2 2.6-1.6 4.1-.4 1.5-.6 3.3-.6 5.3 0 3.8.7 6.4 2.2 7.9 1.4 1.6 3.8 2.3 6.9 2.3 3.3 0 5.6-.8 7-2.4 1.4-1.6 2.2-4.4 2.2-8.3 0-2.5-.2-4.6-.6-6.1-.4-1.7-1-3-1.7-4.2-.7-1.2-1.9-2.8-3.4-4.7-1.7-2.1-2.9-3.8-3.7-5.2-.9-1.4-1.5-2.8-1.8-4.4-.4-1.5-.6-3.3-.6-5.5v-2h4.7zM523.6 90.2c1.5-1.7 2.3-4.4 2.3-8.2 0-3.8-.8-6.6-2.5-8.2-1.6-1.6-3.9-2.5-7.1-2.5-1.8 0-3.4.3-4.9.9-1.6.6-3 1.4-4.1 2.5V82c0 3.9.7 6.6 2.2 8.2 1.5 1.7 3.8 2.5 7.1 2.5 3.2 0 5.5-.8 7-2.5zm.5-21.6c2.1 1.2 3.7 2.8 4.9 5.1 1.2 2.3 1.8 5.1 1.8 8.4 0 4.9-1.3 8.6-3.8 11.2-2.6 2.5-6.1 3.8-10.5 3.8-4.3 0-7.7-1.3-10.3-3.8-2.6-2.5-3.9-6.1-3.9-10.8V61.7c0-3.6 1.2-6.5 3.5-8.6 2.3-2.2 5.3-3.2 9.2-3.2h13v4.5h-12.3c-3 0-5.2.6-6.5 1.8-1.3 1.2-1.9 3.2-1.9 5.9v8.7c1.2-1.3 2.6-2.3 4.4-3s3.6-1 5.6-1c2.5.1 4.8.7 6.8 1.8zM540.3 77.4l4.5 1c-.8 2-1.2 3.9-1.2 5.9 0 5.6 3 8.4 9.1 8.4 3.4 0 5.7-.7 7.1-2.3 1.4-1.5 2.1-4.2 2.1-8s-.7-6.5-2.2-8.2c-1.4-1.8-3.8-2.7-7.1-2.7h-2.7v-4.3h3.5c2.8 0 4.7-.7 5.8-2.2 1-1.5 1.6-3.4 1.6-5.8 0-1.5-.2-3-.7-4.4-.6-1.4-1.3-3-2.4-4.9h4.8c2.2 3.1 3.3 6.3 3.3 9.7 0 2.5-.7 4.6-2.1 6.5-1.4 1.8-3.6 3-6.6 3.4 3.5.4 6 1.8 7.6 4.2 1.5 2.5 2.3 5.5 2.3 9 0 4.7-1.2 8.2-3.8 10.7-2.5 2.5-6 3.7-10.4 3.7-2.7 0-5.2-.6-7.3-1.6-2.1-1-3.8-2.5-5-4.4-1.2-1.9-1.8-4.2-1.8-6.7-.1-2.7.5-5.1 1.6-7zM600.2 53.4c2.4 2.7 3.6 6.8 3.6 12.2v8.3c0 4.7-.4 9-1.2 12.9-.7 3.8-1.8 7-3.3 9.5h-4.9c3-5 4.4-12.5 4.4-22.4V66c0-3.1-.3-5.6-.9-7.3-.6-1.8-1.5-3-2.8-3.8-1.3-.7-3.1-1.1-5.4-1.1-2.3 0-4.1.4-5.3 1.1-1.3.7-2.2 2-2.8 3.8-.6 1.7-.9 4.2-.9 7.3v7.9c0 4.6.5 8.9 1.4 12.9.9 3.9 1.9 7.1 3.1 9.5h-5c-1.2-2.3-2.2-5.5-3.1-9.6-.9-4.1-1.3-8.4-1.3-12.8v-8.4c0-5.5 1.2-9.5 3.6-12.2 2.4-2.6 5.8-4 10.3-4 4.7 0 8.1 1.4 10.5 4.1zM58.2 64.9c.6 5.5.9 8.4-3.6 13.1-4.7 4.9-16.4 14-28.3 20.8-5 3-11.9 6.5-17 8.3-3.8 1.4-7 2-8.6-.8-1-1.8-.6-3.4 0-4.9 4.2-11.3 16.1-32.3 23.9-46 .8-1.4 1.7-2.8 2.5-4.3C39.1 30.4 55 5 58.1 1c.4-.6 1.3-1.3 2-.9.6.4.6 1.1.6 1.7 0 .1-.2.8-.3 1.1-5.1 21-4.6 41.5-2.2 62zM75.8 71.3c-5-2.3-7.7-3.5-9.5-9.8-1.9-6.5-3.9-21.1-3.9-34.9 0-5.8.4-13.4 1.3-18.8.7-4.1 1.8-7.1 5-7.1C70.8.7 72 2 72.9 3.2c7.7 9.2 19.9 30.1 27.9 43.8.8 1.4 1.6 2.8 2.5 4.2 11.9 20.8 25.9 47.3 27.9 52 .3.7.5 1.7-.3 2.2-.6.3-1.2-.1-1.7-.4l-.8-.8c-15.7-14.9-33.7-24.7-52.6-32.9zM61.4 83.3c4.6-3.2 6.9-4.9 13.2-3.4 6.5 1.6 20.2 7.2 32.2 14.1 5 2.9 11.4 7.1 15.7 10.6 3.1 2.6 5.2 5.1 3.6 7.9-1 1.8-2.7 2.2-4.2 2.5-11.9 2-36.1 2.2-51.8 2.3h-4.9c-24-.1-53.9-1.2-59-1.8-.7-.1-1.7-.4-1.7-1.4 0-.7.6-1.1 1.1-1.3.1 0 .9-.2 1.1-.3 20.6-6.2 38.1-16.9 54.7-29.2z" class="st0"/>
    </g>
</svg>
