<svg width="28" height="28" fill="none" xmlns="http://www.w3.org/2000/svg"><path d="M13.412 12.444c-1.785 0-3.497-.655-4.759-1.822-1.262-1.167-1.97-2.75-1.97-4.4 0-1.65.708-3.233 1.97-4.4C9.915.656 11.627 0 13.413 0c1.784 0 3.496.656 4.758 1.822 1.262 1.167 1.971 2.75 1.971 4.4-.002 1.65-.712 3.231-1.973 4.398-1.262 1.166-2.973 1.823-4.757 1.825Zm0-10.37c-1.19 0-2.331.437-3.172 1.215-.842.778-1.315 1.833-1.315 2.933 0 1.1.473 2.156 1.315 2.933.84.778 1.982 1.215 3.172 1.215 1.19 0 2.331-.437 3.173-1.215.841-.777 1.314-1.833 1.314-2.933 0-1.1-.473-2.155-1.314-2.933-.842-.778-1.983-1.215-3.173-1.215Z" fill="#fff"/><path d="M13.412 12.444c-1.785 0-3.497-.655-4.759-1.822-1.262-1.167-1.97-2.75-1.97-4.4 0-1.65.708-3.233 1.97-4.4C9.915.656 11.627 0 13.413 0c1.784 0 3.496.656 4.758 1.822 1.262 1.167 1.971 2.75 1.971 4.4-.002 1.65-.712 3.231-1.973 4.398-1.262 1.166-2.973 1.823-4.757 1.825Zm0-10.37c-1.19 0-2.331.437-3.172 1.215-.842.778-1.315 1.833-1.315 2.933 0 1.1.473 2.156 1.315 2.933.84.778 1.982 1.215 3.172 1.215 1.19 0 2.331-.437 3.173-1.215.841-.777 1.314-1.833 1.314-2.933 0-1.1-.473-2.155-1.314-2.933-.842-.778-1.983-1.215-3.173-1.215ZM20.138 13.482a8.101 8.101 0 0 0-2.893.518 14.504 14.504 0 0 0-7.823.038c-2.546.729-4.8 2.14-6.477 4.056-1.677 1.915-2.7 4.248-2.94 6.702a.993.993 0 0 0 .257.76c.192.211.466.345.763.37h13.628c1.868 1.693 4.527 2.414 7.088 1.923 2.562-.49 4.691-2.129 5.678-4.369.988-2.24.703-4.787-.758-6.793-1.46-2.007-3.907-3.209-6.523-3.206ZM2.43 23.852c.502-2.347 1.873-4.46 3.876-5.973 2.004-1.514 4.516-2.336 7.104-2.323.39 0 .779.02 1.166.062-1.467 1.36-2.29 3.202-2.288 5.123a6.686 6.686 0 0 0 .762 3.11l-10.62.001Zm22.196 0c-1.059 1.306-2.721 2.074-4.487 2.074-1.765 0-3.427-.768-4.486-2.074a4.876 4.876 0 0 1-1.122-3.111c.002-1.375.594-2.692 1.645-3.664 1.051-.972 2.477-1.52 3.963-1.521.267 0 .534.02.797.062 1.335.175 2.556.79 3.44 1.731.884.941 1.371 2.145 1.372 3.392a4.876 4.876 0 0 1-1.122 3.111Z" fill="#fff"/><path d="M19.013 22.82a.586.586 0 0 1-.397-.151l-1.683-1.556a.501.501 0 0 1-.17-.368.5.5 0 0 1 .163-.372.586.586 0 0 1 .402-.151c.15 0 .294.058.398.158l1.683 1.556a.49.49 0 0 1 .121.564.563.563 0 0 1-.517.32Z" fill="#fff"/><path d="M19.017 22.819a.561.561 0 0 1-.525-.34.494.494 0 0 1 .16-.572l3.926-3.111a.593.593 0 0 1 .775.069.49.49 0 0 1-.046.718l-3.925 3.111a.589.589 0 0 1-.365.125Z" fill="#fff"/></svg>