<svg width="34" height="33" fill="none" xmlns="http://www.w3.org/2000/svg"><path fill-rule="evenodd" clip-rule="evenodd" d="M24.058.5c5.44 0 9.096 3.819 9.096 9.502v13.245c0 5.684-3.656 9.503-9.096 9.503H10c-5.44 0-9.096-3.819-9.096-9.503V10.002C.904 4.32 4.559.5 10 .5h14.058Zm0 2.25H10c-4.158 0-6.846 2.846-6.846 7.252v13.245c0 4.407 2.688 7.253 6.846 7.253h14.058c4.16 0 6.846-2.846 6.846-7.253V10.002c0-4.407-2.687-7.252-6.846-7.252ZM10.085 12.804c.621 0 1.125.504 1.125 1.125v10.29a1.125 1.125 0 0 1-2.25 0v-10.29c0-.621.504-1.125 1.125-1.125Zm7.001-4.926c.621 0 1.125.504 1.125 1.125v15.214a1.125 1.125 0 0 1-2.25 0V9.003c0-.621.504-1.125 1.125-1.125Zm6.885 10.363c.621 0 1.125.504 1.125 1.125v4.851a1.125 1.125 0 0 1-2.25 0v-4.85c0-.622.504-1.126 1.125-1.126Z" fill="#32394D"/></svg>