<svg width="32" height="33" fill="none" xmlns="http://www.w3.org/2000/svg"><path clip-rule="evenodd" d="M25.262 31.75c2.961 0 5.363-2.767 5.365-6.18V20.646l-.002-3.521v-4.64h.002v-4.92c.003-3.416-2.396-6.186-5.357-6.19H6.743c-2.963 0-5.365 2.766-5.366 6.182v5.068l-.002 3.78c.002.04 0 .12 0 .16 0-.16.002 4.08.011 4.08h-.01v4.921c-.001 3.414 2.4 6.184 5.362 6.184H25.262Z" stroke="#32394D" stroke-width="2.321" stroke-linecap="round" stroke-linejoin="round"/><path d="m23.875 11.5-5.197 7.656a1.16 1.16 0 0 1-1.994-.125l-1.368-2.687a1.16 1.16 0 0 0-1.994-.125l-5.197 7.656" stroke="#32394D" stroke-width="2.321" stroke-linecap="round" stroke-linejoin="round"/></svg>