<svg width="36" height="36" fill="none" xmlns="http://www.w3.org/2000/svg"><path fill-rule="evenodd" clip-rule="evenodd" d="M25.418 1.941c5.44 0 9.096 3.82 9.096 9.503v13.245c0 5.683-3.656 9.502-9.096 9.502H11.36c-5.44 0-9.096-3.819-9.096-9.502V11.444c0-5.684 3.655-9.503 9.096-9.503h14.058Zm0 2.25H11.36c-4.158 0-6.846 2.846-6.846 7.253v13.245c0 4.407 2.688 7.252 6.846 7.252h14.058c4.16 0 6.846-2.845 6.846-7.252V11.444c0-4.407-2.687-7.253-6.846-7.253Z" fill="#32394D"/><g clip-path="url(#a)"><path d="M25.875 17.177h-6.84l.43 2.351h2.324v3.123c-.732.336-1.549.47-2.41.47-2.494 0-3.699-1.242-3.699-4.903 0-3.459 1.85-4.903 4.345-4.903 1.463 0 2.409.336 3.656 1.075l2.151-1.746c-1.075-.739-2.366-1.31-4-1.579v-3.19H20.11v3.023h-.215c-.688 0-1.377.067-2.022.167v-3.19h-1.72v3.627c-2.968 1.007-4.904 3.291-4.904 6.716 0 3.66 1.635 6.012 4.818 6.918v2.99h1.72v-2.654c.516.067 1.076.1 1.635.1.215 0 .387 0 .602-.033v2.586h1.72v-2.754c1.463-.235 2.883-.671 4.13-1.276v-6.918Z" fill="#32394D"/></g><defs><clipPath id="a"><path fill="#fff" transform="translate(11.25 7.875)" d="M0 0h14.625v20.25H0z"/></clipPath></defs></svg>