<svg width="28" height="28" fill="none" xmlns="http://www.w3.org/2000/svg"><g clip-path="url(#a)"><path d="M18.116 13.863h-3.851l.242 1.729h1.308v2.297c-.412.247-.872.346-1.356.346-1.405 0-2.083-.914-2.083-3.606 0-2.545 1.041-3.607 2.446-3.607.824 0 1.356.247 2.059.79l1.21-1.284a4.818 4.818 0 0 0-2.252-1.161V7.02h-.969v2.224h-.12c-.388 0-.776.049-1.139.123V7.02h-.969v2.668c-1.671.741-2.761 2.42-2.761 4.94 0 2.693.92 4.422 2.713 5.089v2.198h.969v-1.951c.29.05.605.074.92.074.121 0 .218 0 .339-.025v1.902h.969V19.89a7.105 7.105 0 0 0 2.325-.939v-5.088Z" fill="#fff"/></g><path d="M23.9 4.1A13.908 13.908 0 0 0 14 0c-3.74 0-7.255 1.456-9.9 4.1A13.909 13.909 0 0 0 0 14c0 3.74 1.456 7.255 4.1 9.9A13.909 13.909 0 0 0 14 28c3.74 0 7.255-1.456 9.9-4.1A13.909 13.909 0 0 0 28 14c0-3.74-1.456-7.255-4.1-9.9Zm-1.16 18.64A12.278 12.278 0 0 1 14 26.36a12.278 12.278 0 0 1-8.74-3.62A12.278 12.278 0 0 1 1.64 14c0-3.301 1.286-6.405 3.62-8.74A12.278 12.278 0 0 1 14 1.64c3.301 0 6.405 1.286 8.74 3.62A12.278 12.278 0 0 1 26.36 14c0 3.301-1.286 6.405-3.62 8.74Z" fill="#fff"/><path d="M13.998 3.284c-5.91 0-10.719 4.809-10.719 10.719 0 5.91 4.809 10.719 10.719 10.719 5.91 0 10.719-4.809 10.719-10.72 0-5.91-4.809-10.718-10.719-10.718Zm0 19.797c-5.006 0-9.078-4.072-9.078-9.078 0-5.006 4.072-9.078 9.078-9.078 5.006 0 9.078 4.072 9.078 9.078 0 5.006-4.072 9.078-9.078 9.078Z" fill="#fff"/><defs><clipPath id="a"><path fill="#fff" transform="translate(9.88 7.02)" d="M0 0h8.235v14.895H0z"/></clipPath></defs></svg>