<svg xmlns="http://www.w3.org/2000/svg" id="Layer_1" viewBox="0 0 71 85">
    <style>
        .st0{fill:#389239}
    </style>
    <path d="M46.4 6.2c.8 1 .3 2.5-.9 2.8-2.5.8-5 1.7-7.5 2.7-1.6.6-3.3.6-4.9 0-2.5-1-5-1.9-7.5-2.7-1.2-.4-1.7-1.9-.9-2.8C27.8 2.6 31.5.1 35.3 0h.6c3.7.1 7.4 2.5 10.5 6.2zM5.5 63.9c-.8 1-2.4.8-2.9-.3C.9 60.3 0 57 0 54c0-1.3.1-2.6.2-3.9.1-1.3 1.5-2.1 2.7-1.6 3.1 1.4 6.2 2.9 9.3 4.6 1.2.6 1.3 2.2.4 3.1-2.5 2.5-4.9 5.1-7.1 7.7zM29.7 13.2c.9.3 1 1.6.1 2.1-5.5 2.7-10.9 5.9-16.2 9.5-.7.5-1.7-.2-1.4-1 .2-.8.5-1.6.8-2.3 1.1-3.2 2.5-6.4 4-9.4.7-1.4 2.3-2.1 3.8-1.7 2.9.8 5.9 1.7 8.9 2.8zM22.5 79.4c-1 1.2-2.7 1.6-4 .8-4.4-2.5-8.4-5.9-11.5-9.8-1-1.2-.9-2.9 0-4.1 2.5-3 5.1-5.9 7.9-8.7 1.1-1.1 2.8-1.2 4.1-.4 4.3 2.8 8.5 5.8 12.5 9.1 1.1.9 1.1 2.5.1 3.5-3.2 3-6.3 6.2-9.1 9.6zM30.8 38.1c1.1.6 1.1 2.1.1 2.8-4.3 3-8.5 6.2-12.5 9.8-1.2 1-2.9 1.2-4.2.5-2.6-1.5-5.3-2.8-7.9-4.1-1.4-.7-2.4-2.1-2.2-3.7.4-4.3 1.4-8.8 2.7-13.1.4-1.4 1.9-2.1 3.3-1.6.6.2 1.2.4 1.9.7 6.3 2.2 12.7 5.1 18.8 8.7zM65.5 63.9c.8 1 2.4.8 2.9-.3C70.1 60.3 71 57 71 54c0-1.3-.1-2.6-.2-3.9-.1-1.3-1.5-2.1-2.7-1.6-3.1 1.4-6.3 2.9-9.3 4.6-1.2.6-1.3 2.2-.4 3.1 2.5 2.5 4.9 5.1 7.1 7.7zM41.3 13.2c-.9.3-1 1.6-.1 2.1 5.5 2.7 10.9 5.9 16.2 9.5.7.5 1.7-.2 1.4-1-.2-.8-.5-1.6-.8-2.3-1.1-3.2-2.5-6.4-4-9.4-.7-1.4-2.3-2.1-3.8-1.7-2.9.8-5.9 1.7-8.9 2.8zM40.2 38.1c-1.1.6-1.1 2.1-.1 2.8 4.3 3 8.5 6.2 12.5 9.8 1.2 1 2.9 1.2 4.2.5 2.6-1.5 5.3-2.8 7.9-4.1 1.4-.7 2.4-2.1 2.2-3.7-.4-4.3-1.4-8.8-2.7-13.1-.4-1.4-1.9-2.1-3.3-1.6-.6.2-1.2.4-1.9.7-6.3 2.2-12.6 5.1-18.8 8.7zM35.5 85c-3.2 0-6.5-.5-9.7-1.6-1.2-.4-1.6-1.9-.8-2.9 2.7-3.1 5.6-6.1 8.6-9 1.1-1 2.8-1 3.9 0 3 2.9 5.9 5.9 8.6 9 .8 1 .4 2.5-.8 2.9-3.3 1.1-6.6 1.6-9.8 1.6zM52.5 80.2c-1.3.8-3 .4-4-.8-2.8-3.3-5.9-6.5-9.1-9.6-1-1-1-2.6.1-3.5 4-3.3 8.2-6.4 12.5-9.1 1.3-.8 3-.7 4.1.4 2.8 2.8 5.5 5.7 7.9 8.7 1 1.2 1 2.9 0 4.1-3.1 3.8-7.1 7.2-11.5 9.8zM37.5 64.5c-1.1 1-2.8 1-4 0-4-3.3-8.2-6.4-12.5-9.3-1.1-.7-1.2-2.3-.2-3.2 4-3.5 8.2-6.7 12.5-9.6 1.3-.9 3.1-.9 4.4 0 4.4 2.9 8.6 6.2 12.5 9.7 1 .9.9 2.4-.2 3.2-4.3 2.8-8.5 5.9-12.5 9.2zM37.7 36.5c-1.4.8-3.1.8-4.5 0-5.2-3.2-10.7-5.9-16.2-8.1-1-.4-1.2-1.8-.3-2.5 5.3-3.6 10.8-6.7 16.4-9.3 1.5-.7 3.3-.7 4.8 0 5.6 2.6 11.1 5.7 16.4 9.3.9.6.8 2-.3 2.5-5.5 2.2-10.9 4.9-16.3 8.1z" class="st0"/>
</svg>
