<svg xmlns="http://www.w3.org/2000/svg" width="56" height="67" fill="none" viewBox="0 0 56 67">
    <path fill="#389239" d="M36.597 4.887c.631.788.237 1.97-.71 2.207-1.971.63-3.943 1.34-5.915 2.128-1.262.473-2.603.473-3.865 0-1.972-.788-3.944-1.497-5.915-2.128-.947-.315-1.341-1.498-.71-2.207C21.927 2.05 24.845.08 27.842 0h.473c2.919.079 5.837 1.97 8.282 4.887zM4.338 50.368c-.631.788-1.893.63-2.287-.236C.71 47.53 0 44.929 0 42.565c0-1.025.079-2.05.158-3.074.079-1.025 1.183-1.656 2.13-1.262 2.444 1.104 4.89 2.286 7.335 3.626.946.473 1.025 1.734.315 2.444-1.972 1.97-3.865 4.02-5.6 6.07zM23.425 10.405c.71.236.79 1.26.08 1.655-4.339 2.128-8.598 4.65-12.778 7.488-.552.394-1.341-.157-1.104-.788.157-.63.394-1.261.63-1.813.868-2.522 1.972-5.045 3.155-7.41.553-1.103 1.815-1.655 2.998-1.34 2.287.631 4.653 1.34 7.02 2.208zM17.747 62.586c-.79.946-2.13 1.261-3.155.63-3.47-1.97-6.626-4.65-9.07-7.724-.79-.946-.71-2.286 0-3.232 1.971-2.365 4.022-4.65 6.23-6.858.868-.867 2.209-.946 3.234-.315 3.392 2.207 6.704 4.572 9.86 7.173.867.71.867 1.97.078 2.759-2.524 2.364-4.97 4.887-7.177 7.567zM24.293 30.032c.868.473.868 1.655.079 2.207-3.392 2.364-6.704 4.887-9.86 7.725-.946.788-2.287.945-3.312.394-2.05-1.183-4.18-2.207-6.231-3.232-1.104-.552-1.893-1.655-1.735-2.917.315-3.389 1.104-6.936 2.13-10.326.315-1.103 1.498-1.655 2.602-1.26.473.157.947.315 1.499.551 4.969 1.734 10.017 4.02 14.828 6.858zM51.662 50.368c.631.788 1.893.63 2.287-.236C55.29 47.53 56 44.929 56 42.565c0-1.025-.079-2.05-.158-3.074-.079-1.025-1.183-1.656-2.13-1.262-2.444 1.104-4.968 2.286-7.335 3.626-.946.473-1.025 1.734-.315 2.444 1.972 1.97 3.865 4.02 5.6 6.07zM32.575 10.405c-.71.236-.79 1.26-.08 1.655 4.339 2.128 8.598 4.65 12.778 7.488.552.394 1.341-.157 1.104-.788-.157-.63-.394-1.261-.63-1.813-.868-2.522-1.972-5.045-3.155-7.41-.553-1.103-1.814-1.655-2.998-1.34-2.287.631-4.653 1.34-7.02 2.208zM31.707 30.032c-.868.473-.868 1.655-.079 2.207 3.392 2.364 6.704 4.887 9.86 7.725.946.788 2.287.945 3.312.394 2.05-1.183 4.18-2.207 6.231-3.232 1.104-.552 1.893-1.655 1.735-2.917-.315-3.389-1.104-6.936-2.13-10.326-.315-1.103-1.498-1.655-2.602-1.26-.473.157-.947.315-1.499.551-4.969 1.734-9.938 4.02-14.828 6.858zM28 67c-2.524 0-5.127-.394-7.65-1.261-.947-.316-1.263-1.498-.632-2.286 2.13-2.444 4.417-4.808 6.783-7.094.868-.788 2.209-.788 3.076 0 2.367 2.286 4.654 4.65 6.784 7.094.63.788.315 1.97-.631 2.286C33.127 66.606 30.524 67 28 67zM41.408 63.217c-1.025.63-2.366.315-3.154-.631-2.209-2.601-4.654-5.124-7.178-7.567-.789-.788-.789-2.05.079-2.759 3.155-2.601 6.468-5.045 9.86-7.173 1.024-.63 2.365-.552 3.233.315 2.208 2.207 4.338 4.493 6.23 6.858.79.946.79 2.286 0 3.232-2.444 2.995-5.6 5.675-9.07 7.725zM29.578 50.841c-.868.788-2.209.788-3.155 0-3.155-2.601-6.468-5.044-9.86-7.33-.867-.552-.946-1.813-.157-2.523 3.155-2.759 6.467-5.28 9.859-7.567 1.025-.71 2.445-.71 3.47 0 3.47 2.286 6.783 4.887 9.86 7.646.788.71.71 1.892-.158 2.522-3.392 2.208-6.705 4.651-9.86 7.252zM29.735 28.77c-1.104.631-2.445.631-3.55 0-4.1-2.522-8.438-4.65-12.776-6.384-.79-.315-.947-1.419-.237-1.97 4.18-2.838 8.518-5.282 12.935-7.331 1.183-.552 2.603-.552 3.786 0 4.417 2.05 8.755 4.493 12.935 7.33.71.473.631 1.577-.236 1.97-4.338 1.735-8.598 3.863-12.857 6.386z"/>
</svg>
