<svg width="28" height="31" fill="none" xmlns="http://www.w3.org/2000/svg"><path fill-rule="evenodd" clip-rule="evenodd" d="M19.863.991c4.716 0 7.884 3.22 7.884 8.012v13.753c0 4.834-3.07 7.978-7.822 8.008l-11.54.004C3.67 30.768.5 27.548.5 22.756V9.003C.5 4.168 3.57 1.026 8.322.997l11.54-.006h.002Zm0 2.244L8.33 3.24c-3.492.02-5.58 2.174-5.58 5.762v13.753c0 3.612 2.107 5.769 5.634 5.769l11.534-.005c3.492-.02 5.58-2.177 5.58-5.764V9.003c0-3.612-2.107-5.768-5.635-5.768Zm-.289 17.907c.621 0 1.125.503 1.125 1.122 0 .62-.504 1.122-1.125 1.122H8.744a1.124 1.124 0 0 1-1.125-1.122c0-.62.504-1.122 1.125-1.122h10.83Zm0-6.261c.621 0 1.125.503 1.125 1.122 0 .619-.504 1.121-1.125 1.121H8.744a1.124 1.124 0 0 1-1.125-1.121c0-.62.504-1.122 1.125-1.122h10.83Zm-6.698-6.247c.621 0 1.125.503 1.125 1.122 0 .62-.504 1.122-1.125 1.122H8.744a1.124 1.124 0 0 1-1.125-1.122c0-.62.504-1.122 1.125-1.122h4.132Z" fill="#32394D"/></svg>