<svg width="30" height="30" fill="none" xmlns="http://www.w3.org/2000/svg"><g clip-path="url(#a)" fill="#fff"><path d="M12.05 8.092c0-2.399-1.951-4.35-4.35-4.35-2.4 0-4.351 1.951-4.351 4.35 0 2.4 1.951 4.351 4.35 4.351 2.4 0 4.351-1.952 4.351-4.35ZM7.7 11.514a3.426 3.426 0 0 1-3.423-3.422A3.426 3.426 0 0 1 7.7 4.67a3.426 3.426 0 0 1 3.422 3.422A3.426 3.426 0 0 1 7.7 11.514Z"/><path d="M28.507 17.136V3.072A2.12 2.12 0 0 0 26.388.954H3.515a2.12 2.12 0 0 0-2.118 2.118v4.613a.425.425 0 1 0 .85 0V3.072c0-.7.569-1.268 1.268-1.268h7.625v.476c0 .76.619 1.38 1.38 1.38h4.865c.76 0 1.38-.62 1.38-1.38v-.476h7.625c.699 0 1.268.569 1.268 1.268v14.044H2.246V9.658a.425.425 0 1 0-.85 0v7.478c-.538.099-.948.57-.948 1.137v1.193c0 .638.519 1.156 1.157 1.156H9.38l-1.699 7.81c-.153.654.396 1.33 1.067 1.312h1.606c.516 0 .965-.366 1.068-.872l.555-2.558a.425.425 0 0 0-.83-.18l-.556 2.56-.002.007a.24.24 0 0 1-.236.193H8.748c-.183-.027-.243-.1-.236-.285l1.737-7.987h2.093l-.654 3.015-.445-.177a.425.425 0 1 0-.314.79l2.788 1.109a3.325 3.325 0 0 0 2.468 0l1.412-.562.884 4.075c.103.506.551.872 1.068.872h1.605c.671.017 1.22-.658 1.068-1.311l-1.373-6.313a.425.425 0 0 0-.83.18l1.371 6.31c.008.184-.052.257-.236.284H19.55a.241.241 0 0 1-.237-.2l-.915-4.215.577-.23a.425.425 0 0 0-.314-.79l-.446.178-.654-3.015h10.738c.638 0 1.156-.518 1.156-1.156v-1.193c0-.567-.409-1.038-.947-1.137ZM17.914 2.28a.53.53 0 0 1-.53.53h-4.866a.53.53 0 0 1-.53-.53v-.476h5.926v.476Zm-.5 21.676-1.543.613a2.478 2.478 0 0 1-1.84 0l-1.542-.613.723-3.334h3.479l.723 3.334Zm11.19-4.49a.307.307 0 0 1-.306.307H1.605a.307.307 0 0 1-.307-.307v-1.193c0-.17.138-.307.307-.307h26.693c.17 0 .307.138.307.307v1.193Z"/><path d="m19.685 8.701-.449-.448a1.039 1.039 0 0 0-1.467 0L14.33 11.69a.425.425 0 0 0 .6.6l3.438-3.438a.188.188 0 0 1 .266 0l.449.449a1.039 1.039 0 0 0 1.467 0l4.475-4.474V6.43a.425.425 0 1 0 .85 0V3.802a.428.428 0 0 0-.426-.425h-2.627a.425.425 0 0 0 0 .85h1.601L19.95 8.7a.188.188 0 0 1-.265 0ZM14.123 15.338c0 .468.38.848.848.848h1.125c.467 0 .848-.38.848-.848v-1.125a.849.849 0 0 0-.848-.848H14.97a.85.85 0 0 0-.848.848v1.125Zm1.971-1.125.002 1.123-1.123.002-.002-1.123 1.123-.002ZM19.485 13.365a.85.85 0 0 0-.848.848v1.125c0 .468.38.848.848.848h1.124a.85.85 0 0 0 .848-.848v-1.125a.85.85 0 0 0-.848-.848h-1.124Zm.002 1.973-.002-1.123 1.123-.002.002 1.123-1.123.002ZM25.066 13.365H23.94a.85.85 0 0 0-.848.848v1.125c0 .468.38.848.848.848h1.125c.467 0 .848-.38.848-.848v-1.125a.85.85 0 0 0-.849-.848Zm-1.123 1.973-.002-1.123 1.123-.002.002 1.123-1.123.002ZM6.967 14.448a.425.425 0 1 0 0 .85h2.231a.425.425 0 1 0 0-.85H6.967ZM9.15 7.59H7.795l.085.606h.461V9a.914.914 0 0 1-.478.121c-.494 0-.733-.32-.733-1.264 0-.892.367-1.264.861-1.264.29 0 .478.087.726.277l.426-.45a1.7 1.7 0 0 0-.793-.407v-.823h-.342v.78h-.042c-.137 0-.273.017-.401.043v-.823h-.341v.936c-.59.26-.973.848-.973 1.731 0 .944.324 1.55.955 1.784v.77h.342V9.73c.102.017.213.025.324.025.043 0 .077 0 .12-.008v.666h.34v-.71c.29-.06.572-.173.82-.329V7.59Z"/></g><defs><clipPath id="a"><path fill="#fff" transform="translate(.448 .846)" d="M0 0h29.006v29.006H0z"/></clipPath></defs></svg>