<svg width="31" height="32" fill="none" xmlns="http://www.w3.org/2000/svg"><path fill-rule="evenodd" clip-rule="evenodd" d="M29.23 20.269c.62.047 1.084.604 1.037 1.242l-.285 3.87c-.235 3.194-2.856 5.695-5.968 5.695h-17.4c-3.113 0-5.733-2.5-5.969-5.694L.36 21.51c-.046-.638.419-1.195 1.038-1.242a1.152 1.152 0 0 1 1.208 1.067l.283 3.87c.147 1.993 1.782 3.556 3.725 3.556h17.4c1.942 0 3.579-1.563 3.724-3.556l.285-3.87a1.16 1.16 0 0 1 1.208-1.067ZM17.25.62c2.253 0 4.121 1.738 4.402 3.98h2.955c3.144 0 5.7 2.637 5.7 5.88v5.306c0 .412-.213.792-.557.999-3.702 2.23-8.392 3.53-13.311 3.704v2.775c0 .639-.504 1.157-1.125 1.157-.62 0-1.125-.518-1.125-1.157v-2.775c-4.915-.172-9.605-1.473-13.31-3.704a1.16 1.16 0 0 1-.557-.999v-5.321C.322 7.23 2.885 4.6 6.037 4.6l2.939-.002C9.257 2.358 11.125.62 13.379.62h3.87Zm7.357 6.295H6.037c-1.911 0-3.465 1.592-3.465 3.55v4.647c3.56 1.99 8.05 3.08 12.721 3.083l.021-.002h.017l.714-.007c4.419-.109 8.634-1.187 12.012-3.074V10.48c0-1.967-1.547-3.565-3.45-3.565Zm-7.358-3.98h-3.87c-1.01 0-1.862.706-2.114 1.665h8.099c-.252-.959-1.105-1.666-2.115-1.666Z" fill="#32394D"/></svg>