<svg width="37" height="37" fill="none" xmlns="http://www.w3.org/2000/svg"><path clip-rule="evenodd" d="m19.271 13.48.915 1.934c.089.19.261.32.462.352l2.044.312c.506.077.706.725.341 1.096l-1.478 1.503a.664.664 0 0 0-.178.57l.348 2.123c.086.525-.44.925-.892.677l-1.827-1.003a.589.589 0 0 0-.573 0l-1.826 1.003c-.453.248-.98-.152-.894-.677l.349-2.124a.66.66 0 0 0-.178-.569l-1.477-1.503c-.365-.371-.165-1.019.34-1.096l2.044-.312a.62.62 0 0 0 .463-.352l.913-1.933a.605.605 0 0 1 1.104 0Z" stroke="#32394D" stroke-width="1.74" stroke-linecap="round" stroke-linejoin="round"/><path clip-rule="evenodd" d="M27.98 33.373c2.962 0 5.363-2.766 5.365-6.18V22.27c-1.956 0-3.54-1.826-3.541-4.08 0-2.253 1.584-4.081 3.54-4.081h.001v-4.92c.003-3.416-2.395-6.186-5.357-6.19H9.461c-2.963 0-5.364 2.767-5.366 6.182V14.266c1.888-.076 3.47 1.626 3.537 3.802l.003.12c.002 2.251-1.578 4.077-3.53 4.08h-.01v4.921c-.001 3.414 2.4 6.184 5.362 6.184H27.98Z" stroke="#32394D" stroke-width="2.321" stroke-linecap="round" stroke-linejoin="round"/></svg>