<svg xmlns="http://www.w3.org/2000/svg" width="74" height="96" fill="none" viewBox="0 0 74 96">
    <path fill="#fff" d="M38.398 67.258l9.414-53.155c8.962 0 11.8.99 12.21 5.031 0 0 6.044-2.268 9.045-6.845-11.84-5.526-23.763-5.774-23.763-5.774l-6.906 8.537-6.948-8.495s-11.922.247-23.762 5.773c3.042 4.577 9.044 6.845 9.044 6.845.411-4.041 3.248-5.03 12.17-5.03l9.496 53.113z"/>
    <path fill="#fff" d="M38.398 4.082C47.977 4 58.953 5.567 70.177 10.474c1.52-2.721 1.89-3.917 1.89-3.917C59.777 1.69 48.307.04 38.398 0 28.49.041 17.02 1.69 4.728 6.598c0 0 .535 1.484 1.892 3.917C17.842 5.567 28.819 4 38.398 4.082zM18.664 88.247h7.154c.986-.206 1.726-1.072 1.932-1.938H16.732c.206.866.946 1.773 1.932 1.938zM18.664 92.082h7.154c.986-.206 1.726-1.072 1.932-1.938H16.732c.206.866.946 1.732 1.932 1.938zM18.664 96h7.154c.986-.206 1.726-1.072 1.932-1.938H16.732c.206.866.946 1.732 1.932 1.938zM64.873 88.289h7.195c.986-.207 1.726-1.073 1.932-1.939H62.941c.206.825.946 1.733 1.932 1.939zM0 86.35c.206.825.946 1.691 1.932 1.939h3.001l.165.04v7.63h1.89v-7.63l.165-.04h3.043c1.027-.248 1.726-1.073 1.932-1.939H0zM57.556 96c.945-.412 1.438-1.113 1.644-1.897h-8.387v-7.752h-1.89V96h8.633zM35.027 88.247h6.619c.986-.288 1.85-1.072 2.055-1.897H33.177v5.691h8.633v2.02h-6.742c-1.07.29-1.974.99-2.385 1.939h11.018v-5.856h-8.674v-1.897zM63.229 90.144V96h1.85v-3.876h6.783V96h1.891v-5.814l-10.524-.042z"/>
</svg>
